<?xml version="1.0" standalone="no"?>
<!DOCTYPE svg PUBLIC "-//W3C//DTD SVG 20010904//EN"
 "http://www.w3.org/TR/2001/REC-SVG-20010904/DTD/svg10.dtd">
<svg version="1.0" xmlns="http://www.w3.org/2000/svg"
 width="332.000000pt" height="332.000000pt" viewBox="0 0 332.000000 332.000000"
 preserveAspectRatio="xMidYMid meet">
<metadata>
Created by potrace 1.14, written by Peter Selinger 2001-2017
</metadata>
<g transform="translate(0.000000,332.000000) scale(0.100000,-0.100000)"
fill="#000000" stroke="none">
<path d="M1500 3237 c-3 -3 -29 -8 -59 -11 -29 -4 -57 -8 -60 -10 -4 -3 -27
-7 -51 -10 -25 -3 -61 -10 -80 -16 -19 -6 -42 -13 -50 -15 -72 -17 -258 -94
-343 -142 -33 -18 -63 -33 -67 -33 -5 0 -10 -3 -12 -7 -4 -9 -65 -53 -73 -53
-23 0 -254 -210 -320 -291 -51 -62 -85 -107 -85 -113 0 -4 -9 -16 -20 -28 -11
-12 -20 -28 -20 -35 0 -7 -4 -13 -10 -13 -5 0 -10 -7 -10 -15 0 -8 -4 -15 -9
-15 -5 0 -14 -12 -20 -27 -6 -16 -15 -35 -19 -43 -33 -56 -107 -234 -118 -282
-2 -10 -6 -27 -8 -38 -3 -11 -7 -24 -10 -29 -3 -5 -8 -26 -12 -47 -3 -22 -12
-68 -19 -103 -7 -35 -12 -72 -10 -83 2 -10 0 -18 -4 -18 -12 0 -6 -256 8 -350
19 -127 60 -282 100 -385 22 -56 108 -224 128 -251 13 -17 23 -34 23 -39 0 -4
10 -20 23 -35 12 -16 36 -46 52 -67 17 -21 47 -56 67 -79 36 -39 39 -54 12
-54 -7 0 -23 -4 -36 -9 -13 -5 -27 -9 -33 -9 -15 -1 -35 -94 -39 -184 -1 -32
-6 -61 -10 -65 -7 -8 -12 -9 -54 -11 -29 -2 -41 -31 -19 -47 10 -7 30 -11 45
-9 15 1 118 5 228 8 111 4 236 9 277 12 73 5 79 4 179 -39 197 -84 131 -77
698 -77 l509 0 78 29 c43 16 107 42 143 59 73 33 34 32 450 17 273 -10 272
-10 263 24 -5 20 -30 31 -70 31 -22 0 -23 4 -24 78 0 42 -6 95 -13 117 -10 36
-17 42 -64 59 -29 10 -51 22 -50 27 2 4 21 29 43 54 175 205 311 479 361 730
2 11 6 31 9 45 28 131 26 414 -3 566 -83 423 -313 780 -663 1026 -90 63 -122
83 -171 106 -21 9 -38 20 -38 24 0 5 -6 8 -14 8 -8 0 -27 7 -43 15 -23 13 -64
30 -93 40 -3 1 -12 5 -20 8 -32 13 -106 38 -120 41 -8 1 -35 8 -60 15 -25 7
-56 15 -70 17 -14 2 -61 10 -105 18 -72 13 -384 23 -395 13z"/>
</g>
</svg>
